<?xml version="1.0" encoding="utf-8"?>
<!-- Generator: Adobe Illustrator 21.0.2, SVG Export Plug-In . SVG Version: 6.00 Build 0)  -->
<svg version="1.1" id="Layer_1" xmlns="http://www.w3.org/2000/svg" xmlns:xlink="http://www.w3.org/1999/xlink" x="0px" y="0px"
	 viewBox="0 0 401.3 47.4" style="enable-background:new 0 0 401.3 47.4;" xml:space="preserve">
<style type="text/css">
	.st0{fill:#002F6F;}
	.st1{fill:#233842;}
	.st2{fill:#0065B3;}
	.st3{fill:#4595D2;}
	.st4{fill:#4B6A90;}
	.st5{fill:#7EADCA;}
	.st6{fill:#546672;}
	.st7{fill:#93C4E3;}
	.st8{fill:#3D4F59;}
	.st9{fill:#D4EEFB;}
	.st10{fill:#A7C6DE;}
	.st11{fill:#94A6BF;}
	.st12{fill:#00437A;}
	.st13{stroke:#00437A;stroke-width:2;stroke-miterlimit:10;}
</style>
<g>
	<circle class="st0" cx="32.1" cy="5.4" r="5.4"/>
	<circle class="st1" cx="53.7" cy="42" r="5.4"/>
	<circle class="st2" cx="5.4" cy="42" r="5.4"/>
	<circle class="st3" cx="13.8" cy="34.5" r="3.5"/>
	<circle class="st4" cx="35" cy="16.2" r="3.5"/>
	<circle class="st5" cx="34.3" cy="24.9" r="2.3"/>
	<circle class="st6" cx="34.7" cy="38" r="2.3"/>
	<circle class="st7" cx="21.6" cy="31.4" r="2.3"/>
	<circle class="st8" cx="42" cy="41.1" r="3.5"/>
	<circle class="st9" cx="28.2" cy="30" r="1.4"/>
	<circle class="st10" cx="32.8" cy="31" r="1.4"/>
	<circle class="st11" cx="29.1" cy="34.3" r="1.4"/>
</g>
<g>
	<g>
		<path class="st12" d="M74.2,9.1h18.2c3,0,5.2,0.7,6.6,2.1c1.4,1.4,2.1,3.6,2.1,6.6v4.3c0,3-0.7,5.2-2.1,6.6
			c-1.4,1.4-3.6,2.1-6.6,2.1H82v8.7h-7.8V9.1z M93.3,17.8c0-1.7-0.9-2.6-2.6-2.6H82v9.6h8.7c1.7,0,2.6-0.9,2.6-2.6V17.8z"/>
		<path class="st12" d="M104.1,33.2c7.9,0.4,13.3,0.7,16.1,0.7c0.7,0,1.2-0.2,1.6-0.6s0.6-0.9,0.6-1.6v-3.9h-10
			c-3,0-5.2-0.7-6.6-2.1c-1.4-1.4-2.1-3.6-2.1-6.6v-1.3c0-3,0.7-5.2,2.1-6.6c1.4-1.4,3.6-2.1,6.6-2.1h15.2v6.1h-13.5
			c-1.7,0-2.6,0.9-2.6,2.6v0.9c0,1.7,0.9,2.6,2.6,2.6h7.8c2.8,0,4.9,0.7,6.3,2c1.3,1.3,2,3.4,2,6.3v2.2c0,2.8-0.7,4.9-2,6.3
			c-1.3,1.3-3.4,2-6.3,2c-1.5,0-3,0-4.7-0.1l-4-0.2c-3-0.1-6-0.3-9.2-0.6V33.2z"/>
		<path class="st12" d="M160.2,38.9c-6.8,0.7-13,1.1-18.7,1.1c-2.8,0-4.9-0.7-6.3-2c-1.3-1.3-2-3.4-2-6.3V17.8c0-3,0.7-5.2,2.1-6.6
			c1.4-1.4,3.6-2.1,6.6-2.1h15.6v6.1h-13.9c-1.7,0-2.6,0.9-2.6,2.6v13.9c0,0.7,0.2,1.2,0.6,1.6c0.4,0.4,0.9,0.6,1.6,0.6
			c3.3,0,6.4-0.1,9.1-0.2v-6.3h-5.6v-5.2h13.5V38.9z"/>
	</g>
</g>
<g>
	<g>
		<path class="st12" d="M192.8,33.4c7.9,0.4,13.3,0.7,16.1,0.7c0.7,0,1.2-0.2,1.6-0.6c0.4-0.4,0.6-0.9,0.6-1.6V28h-10
			c-3,0-5.2-0.7-6.6-2.1c-1.4-1.4-2.1-3.6-2.1-6.6V18c0-3,0.7-5.2,2.1-6.6c1.4-1.4,3.6-2.1,6.6-2.1h15.2v6.1h-13.5
			c-1.7,0-2.6,0.9-2.6,2.6v0.9c0,1.7,0.9,2.6,2.6,2.6h7.8c2.8,0,4.9,0.7,6.3,2c1.3,1.3,2,3.4,2,6.3v2.2c0,2.8-0.7,4.9-2,6.3
			c-1.3,1.3-3.4,2-6.3,2c-1.5,0-3,0-4.7-0.1l-4-0.2c-3-0.1-6-0.3-9.2-0.6V33.4z"/>
		<path class="st12" d="M245.8,33.2c0,2.2-0.6,3.9-1.8,5.1c-1.2,1.2-2.9,1.8-5.1,1.8h-10c-2.2,0-3.9-0.6-5.1-1.8
			c-1.2-1.2-1.8-2.9-1.8-5.1v-10c0-2.2,0.6-3.9,1.8-5.1c1.2-1.2,2.9-1.8,5.1-1.8h10c2.2,0,3.9,0.6,5.1,1.8c1.2,1.2,1.8,2.9,1.8,5.1
			V33.2z M238.2,23.9c0-1.2-0.6-1.7-1.7-1.7h-5.2c-1.2,0-1.7,0.6-1.7,1.7v8.7c0,1.2,0.6,1.7,1.7,1.7h5.2c1.2,0,1.7-0.6,1.7-1.7V23.9
			z"/>
		<path class="st12" d="M261.5,39.7c-1.9,0.3-3.8,0.4-5.5,0.4c-1.8,0-3.2-0.6-4.4-1.8c-1.2-1.2-1.8-2.8-1.8-4.7V9.3h7.6v23.2
			c0,0.4,0.1,0.8,0.4,1.1c0.3,0.3,0.7,0.4,1.1,0.4h2.6V39.7z"/>
		<path class="st12" d="M275.1,33.9c1.5,0,3.3-0.3,5.2-0.9V16.7h7.6v23h-6.7l-0.4-2.2c-1.4,0.9-2.8,1.6-4.2,2s-2.6,0.6-3.6,0.6h-2
			c-2,0-3.5-0.6-4.7-1.8c-1.2-1.2-1.8-2.8-1.8-4.7V16.7h7.6v15.6c0,0.4,0.1,0.8,0.4,1.1s0.7,0.4,1.1,0.4H275.1z"/>
		<path class="st12" d="M308.4,39.7c-2.8,0.3-5.6,0.4-8.2,0.4c-2,0-3.5-0.6-4.7-1.8s-1.8-2.8-1.8-4.7V22.6H291v-5.9h2.6l0.9-5.2h6.7
			v5.2h5.4v5.9h-5.4v10c0,0.4,0.1,0.8,0.4,1.1c0.3,0.3,0.7,0.4,1.1,0.4h5.6V39.7z"/>
		<path class="st12" d="M320.1,17.6v22.1h-7.6V23.4h-3.3v-5.9H320.1z M312.5,8.9h7.6V15h-7.6V8.9z"/>
		<path class="st12" d="M347.9,33.2c0,2.2-0.6,3.9-1.8,5.1c-1.2,1.2-2.9,1.8-5.1,1.8h-10c-2.2,0-3.9-0.6-5.1-1.8
			c-1.2-1.2-1.8-2.9-1.8-5.1v-10c0-2.2,0.6-3.9,1.8-5.1c1.2-1.2,2.9-1.8,5.1-1.8h10c2.2,0,3.9,0.6,5.1,1.8c1.2,1.2,1.8,2.9,1.8,5.1
			V33.2z M340.3,23.9c0-1.2-0.6-1.7-1.7-1.7h-5.2c-1.2,0-1.7,0.6-1.7,1.7v8.7c0,1.2,0.6,1.7,1.7,1.7h5.2c1.2,0,1.7-0.6,1.7-1.7V23.9
			z"/>
		<path class="st12" d="M364.6,22.6c-1.5,0-3.3,0.3-5.2,0.9v16.3h-7.6v-23h6.7l0.4,2.2c1.4-0.9,2.8-1.6,4.2-2
			c1.4-0.4,2.6-0.6,3.6-0.6h2c2,0,3.5,0.6,4.7,1.8c1.2,1.2,1.8,2.8,1.8,4.7v16.9h-7.6V24.1c0-0.4-0.1-0.8-0.4-1.1
			c-0.3-0.3-0.7-0.4-1.1-0.4H364.6z"/>
		<path class="st12" d="M378.2,33.6c5.9,0.4,10.5,0.7,13.9,0.7c0.4,0,0.8-0.1,1.1-0.4c0.3-0.3,0.4-0.7,0.4-1.1v-1.5h-9.3
			c-2,0-3.5-0.6-4.7-1.8c-1.2-1.2-1.8-2.8-1.8-4.7v-1.5c0-2,0.6-3.5,1.8-4.7c1.2-1.2,2.8-1.8,4.7-1.8h14.8v5.6h-12.2
			c-0.4,0-0.8,0.1-1.1,0.4c-0.3,0.3-0.4,0.7-0.4,1.1s0.1,0.8,0.4,1.1c0.3,0.3,0.7,0.4,1.1,0.4h7.8c2,0,3.5,0.6,4.7,1.8
			c1.2,1.2,1.8,2.8,1.8,4.7v1.7c0,2-0.6,3.5-1.8,4.7c-1.2,1.2-2.8,1.8-4.7,1.8c-5.1,0-10.6-0.3-16.5-0.9V33.6z"/>
	</g>
</g>
<line class="st13" x1="180.3" y1="4.9" x2="180.3" y2="44.2"/>
</svg>
